<svg width="125" height="22" viewBox="0 0 125 22" fill="none" xmlns="http://www.w3.org/2000/svg">
<path d="M5.42 8.52C5.42 8.94 5.63 9.27 6.05 9.51C6.49 9.75 7.17 10.01 8.09 10.29C9.19 10.65 10.09 11 10.79 11.34C11.51 11.68 12.13 12.21 12.65 12.93C13.19 13.65 13.46 14.59 13.46 15.75C13.46 19.47 11.04 21.33 6.2 21.33C5.4 21.33 4.42 21.26 3.26 21.12C2.12 20.98 1.08 20.8 0.14 20.58C0.18 20.16 0.26 19.55 0.38 18.75C0.52 17.93 0.65 17.32 0.77 16.92C1.47 17.02 2.52 17.14 3.92 17.28C5.34 17.42 6.41 17.49 7.13 17.49C7.55 17.49 7.8 17.46 7.88 17.4C8 17.32 8.09 17.19 8.15 17.01C8.23 16.81 8.27 16.64 8.27 16.5C8.27 16.1 8.08 15.8 7.7 15.6C7.32 15.38 6.67 15.12 5.75 14.82C4.65 14.48 3.74 14.13 3.02 13.77C2.3 13.41 1.67 12.85 1.13 12.09C0.59 11.33 0.32 10.33 0.32 9.09C0.32 8.21 0.52 7.35 0.92 6.51C1.32 5.65 1.73 5.07 2.15 4.77C2.47 4.55 3.13 4.34 4.13 4.14C5.13 3.94 6.07 3.84 6.95 3.84C9.19 3.84 11.02 4.05 12.44 4.47C12.42 4.87 12.35 5.42 12.23 6.12C12.13 6.82 12.02 7.46 11.9 8.04L11.21 8.01C8.61 7.83 6.95 7.74 6.23 7.74C5.93 7.74 5.76 7.75 5.72 7.77C5.64 7.81 5.57 7.9 5.51 8.04C5.45 8.18 5.42 8.34 5.42 8.52ZM30.3395 21H24.7595L21.9095 15.39C21.6295 14.81 21.2595 14.44 20.7995 14.28V21H15.6695V3L20.7995 2.79V13.02C21.2795 12.82 21.6895 12.41 22.0295 11.79L24.5795 7.2L30.1895 7.17L27.2795 11.85C26.8195 12.59 26.3195 13.18 25.7795 13.62C26.2395 14.12 26.7595 14.88 27.3395 15.9L30.3395 21ZM39.6512 21L39.1712 19.11C38.2512 20.61 36.9712 21.36 35.3312 21.36C33.9912 21.36 32.8912 20.99 32.0312 20.25C31.1912 19.49 30.7712 18.43 30.7712 17.07C30.7712 16.23 31.0112 15.5 31.4912 14.88C31.9912 14.24 32.6712 13.79 33.5312 13.53C34.6512 13.21 36.3812 13.03 38.7212 12.99C38.7212 11.67 38.6612 10.97 38.5412 10.89C38.4412 10.81 38.1212 10.77 37.5812 10.77C37.2412 10.77 36.7712 10.79 36.1712 10.83C35.2112 10.87 33.9112 10.98 32.2712 11.16C32.1112 10.08 31.9912 8.92 31.9112 7.68C32.9712 7.46 34.0812 7.28 35.2412 7.14C36.4012 6.98 37.4412 6.9 38.3612 6.9C39.9612 6.9 41.1612 7.17 41.9612 7.71C42.7612 8.23 43.2812 8.92 43.5212 9.78C43.7612 10.64 43.8712 11.73 43.8512 13.05L43.8212 17.46L43.9112 21H39.6512ZM37.0712 18C37.5912 18 38.1412 17.9 38.7212 17.7V15.48H38.4812C37.0012 15.48 36.1812 15.56 36.0212 15.72C35.9212 15.82 35.8412 15.97 35.7812 16.17C35.7412 16.37 35.7212 16.56 35.7212 16.74C35.7212 17.22 35.8312 17.55 36.0512 17.73C36.2712 17.91 36.6112 18 37.0712 18ZM62.3075 5.64C62.1675 5.78 62.0975 6.21 62.0975 6.93V7.2H65.2775V10.14H62.0975V21H56.9675V10.14H52.4975V21H47.3675V10.14H45.1175V7.47L47.3675 7.2V6.75C47.3675 5.87 47.4875 5.03 47.7275 4.23C47.9675 3.43 48.1875 2.95 48.3875 2.79C49.0075 2.27 50.3275 2.01 52.3475 2.01C53.4475 2.01 54.6775 2.09 56.0375 2.25C56.0375 2.49 55.9975 2.97 55.9175 3.69C55.8575 4.41 55.7975 5.02 55.7375 5.52L54.4475 5.49C53.3875 5.49 52.8075 5.54 52.7075 5.64C52.5675 5.78 52.4975 6.21 52.4975 6.93V7.2H56.9675V6.75C56.9675 5.87 57.0875 5.03 57.3275 4.23C57.5675 3.43 57.7875 2.95 57.9875 2.79C58.6075 2.27 59.9275 2.01 61.9475 2.01C63.0475 2.01 64.2775 2.09 65.6375 2.25C65.6375 2.49 65.5975 2.97 65.5175 3.69C65.4575 4.41 65.3975 5.02 65.3375 5.52L64.0475 5.49C62.9875 5.49 62.4075 5.54 62.3075 5.64ZM74.9281 17.4C75.4281 17.4 76.3581 17.35 77.7181 17.25C77.8981 17.25 78.2281 17.23 78.7081 17.19L79.1581 20.28C77.6181 21 75.6181 21.36 73.1581 21.36C70.8581 21.36 69.0881 20.78 67.8481 19.62C66.6281 18.46 66.0181 16.71 66.0181 14.37C66.0181 13.17 66.1681 12.01 66.4681 10.89C66.7881 9.77 67.1481 8.99 67.5481 8.55C67.9681 8.11 68.7481 7.73 69.8881 7.41C71.0281 7.09 72.1581 6.93 73.2781 6.93C75.0781 6.93 76.4281 7.25 77.3281 7.89C78.2281 8.53 78.8181 9.42 79.0981 10.56C79.3781 11.68 79.5181 13.19 79.5181 15.09C78.1581 15.17 76.8281 15.21 75.5281 15.21H71.2681C71.2681 15.85 71.3981 16.33 71.6581 16.65C71.9381 16.97 72.3281 17.18 72.8281 17.28C73.3281 17.36 74.0281 17.4 74.9281 17.4ZM71.5681 10.5C71.4481 10.56 71.3581 10.82 71.2981 11.28C71.2381 11.74 71.1981 12.26 71.1781 12.84H72.7381C73.6781 12.84 74.3581 12.83 74.7781 12.81C74.7781 11.85 74.6381 11.17 74.3581 10.77C74.0981 10.37 73.6381 10.17 72.9781 10.17C72.4381 10.17 71.9681 10.28 71.5681 10.5ZM89.8738 6.9C90.1338 6.9 90.4038 6.93 90.6838 6.99C90.9838 7.05 91.2038 7.12 91.3438 7.2C91.3438 7.64 91.2938 8.37 91.1938 9.39C91.0938 10.39 91.0038 11.1 90.9238 11.52C90.7238 11.5 90.3538 11.49 89.8138 11.49C88.5538 11.49 87.4338 11.56 86.4538 11.7V21H81.3238V7.2H85.6138L86.2138 9.42H86.2438C86.8238 8.66 87.4438 8.05 88.1038 7.59C88.7638 7.13 89.3538 6.9 89.8738 6.9ZM95.3609 5.49C94.6809 5.49 94.0909 5.26 93.5909 4.8C93.1109 4.34 92.8709 3.79 92.8709 3.15C92.8709 2.51 93.1109 1.96 93.5909 1.5C94.0909 1.04 94.6809 0.809999 95.3609 0.809999C96.0409 0.809999 96.6209 1.04 97.1009 1.5C97.5809 1.96 97.8209 2.51 97.8209 3.15C97.8209 3.79 97.5809 4.34 97.1009 4.8C96.6209 5.26 96.0409 5.49 95.3609 5.49ZM92.7809 7.2H97.9109V21H92.7809V7.2ZM108.825 17.4C109.325 17.4 110.255 17.35 111.615 17.25C111.795 17.25 112.125 17.23 112.605 17.19L113.055 20.28C111.515 21 109.515 21.36 107.055 21.36C104.755 21.36 102.985 20.78 101.745 19.62C100.525 18.46 99.9146 16.71 99.9146 14.37C99.9146 13.17 100.065 12.01 100.365 10.89C100.685 9.77 101.045 8.99 101.445 8.55C101.865 8.11 102.645 7.73 103.785 7.41C104.925 7.09 106.055 6.93 107.175 6.93C108.975 6.93 110.325 7.25 111.225 7.89C112.125 8.53 112.715 9.42 112.995 10.56C113.275 11.68 113.415 13.19 113.415 15.09C112.055 15.17 110.725 15.21 109.425 15.21H105.165C105.165 15.85 105.295 16.33 105.555 16.65C105.835 16.97 106.225 17.18 106.725 17.28C107.225 17.36 107.925 17.4 108.825 17.4ZM105.465 10.5C105.345 10.56 105.255 10.82 105.195 11.28C105.135 11.74 105.095 12.26 105.075 12.84H106.635C107.575 12.84 108.255 12.83 108.675 12.81C108.675 11.85 108.535 11.17 108.255 10.77C107.995 10.37 107.535 10.17 106.875 10.17C106.335 10.17 105.865 10.28 105.465 10.5ZM121.58 15.33C121.58 15.69 121.59 16.07 121.61 16.47C121.63 16.85 121.69 17.09 121.79 17.19C121.93 17.33 122.42 17.4 123.26 17.4L124.28 17.37C124.46 18.33 124.55 19.44 124.55 20.7C124.17 20.84 123.61 20.97 122.87 21.09C122.15 21.21 121.46 21.27 120.8 21.27C119.42 21.27 118.35 20.97 117.59 20.37C116.85 19.75 116.48 18.8 116.48 17.52V10.14H114.23V7.41L116.48 7.2L117.83 3.9L121.58 3.69V7.2H124.76V10.14H121.58V15.33Z" fill="#EEE9E1"/>
</svg>
